<?xml version="1.0" encoding="UTF-8" standalone="no"?>
<!-- Created with Inkscape (http://www.inkscape.org/) -->

<svg
   xmlns:osb="http://www.openswatchbook.org/uri/2009/osb"
   xmlns:dc="http://purl.org/dc/elements/1.1/"
   xmlns:cc="http://creativecommons.org/ns#"
   xmlns:rdf="http://www.w3.org/1999/02/22-rdf-syntax-ns#"
   xmlns:svg="http://www.w3.org/2000/svg"
   xmlns="http://www.w3.org/2000/svg"
   xmlns:xlink="http://www.w3.org/1999/xlink"
   xmlns:sodipodi="http://sodipodi.sourceforge.net/DTD/sodipodi-0.dtd"
   xmlns:inkscape="http://www.inkscape.org/namespaces/inkscape"
   width="210mm"
   height="297mm"
   id="svg2"
   version="1.1"
   inkscape:version="0.48.4 r9939"
   sodipodi:docname="controls_001.svg"
   inkscape:export-filename="M:\dev\android_ndk_projs\hontouniiioto\controls_001.png"
   inkscape:export-xdpi="85.141609"
   inkscape:export-ydpi="85.141609">
  <defs
     id="defs4">
    <linearGradient
       id="linearGradient7310"
       osb:paint="solid">
      <stop
         style="stop-color:#000000;stop-opacity:1;"
         offset="0"
         id="stop7312" />
    </linearGradient>
    <linearGradient
       id="linearGradient6899">
      <stop
         style="stop-color:#ffffff;stop-opacity:1;"
         offset="0"
         id="stop6901" />
      <stop
         style="stop-color:#01c53d;stop-opacity:0;"
         offset="1"
         id="stop6903" />
    </linearGradient>
    <marker
       inkscape:stockid="Arrow1Send"
       orient="auto"
       refY="0.0"
       refX="0.0"
       id="Arrow1Send"
       style="overflow:visible;">
      <path
         id="path5508"
         d="M 0.0,0.0 L 5.0,-5.0 L -12.5,0.0 L 5.0,5.0 L 0.0,0.0 z "
         style="fill-rule:evenodd;stroke:#000000;stroke-width:1.0pt;"
         transform="scale(0.2) rotate(180) translate(6,0)" />
    </marker>
    <marker
       inkscape:stockid="Arrow2Sstart"
       orient="auto"
       refY="0.0"
       refX="0.0"
       id="Arrow2Sstart"
       style="overflow:visible">
      <path
         id="path5523"
         style="fill-rule:evenodd;stroke-width:0.62500000;stroke-linejoin:round"
         d="M 8.7185878,4.0337352 L -2.2072895,0.016013256 L 8.7185884,-4.0017078 C 6.9730900,-1.6296469 6.9831476,1.6157441 8.7185878,4.0337352 z "
         transform="scale(0.3) translate(-2.3,0)" />
    </marker>
    <marker
       inkscape:stockid="Arrow1Lend"
       orient="auto"
       refY="0.0"
       refX="0.0"
       id="Arrow1Lend"
       style="overflow:visible;">
      <path
         id="path5496"
         d="M 0.0,0.0 L 5.0,-5.0 L -12.5,0.0 L 5.0,5.0 L 0.0,0.0 z "
         style="fill-rule:evenodd;stroke:#000000;stroke-width:1.0pt;"
         transform="scale(0.8) rotate(180) translate(12.5,0)" />
    </marker>
    <linearGradient
       id="linearGradient5443"
       osb:paint="solid">
      <stop
         style="stop-color:#01c53d;stop-opacity:1;"
         offset="0"
         id="stop5445" />
    </linearGradient>
    <linearGradient
       id="linearGradient5427">
      <stop
         style="stop-color:#01c53d;stop-opacity:1;"
         offset="0"
         id="stop5429" />
      <stop
         style="stop-color:#01c53d;stop-opacity:0;"
         offset="1"
         id="stop5431" />
    </linearGradient>
    <linearGradient
       id="linearGradient5397"
       osb:paint="solid">
      <stop
         style="stop-color:#01c53d;stop-opacity:1;"
         offset="0"
         id="stop5399" />
    </linearGradient>
    <linearGradient
       id="linearGradient5387">
      <stop
         style="stop-color:#2e26fb;stop-opacity:1;"
         offset="0"
         id="stop5389" />
      <stop
         style="stop-color:#000000;stop-opacity:0;"
         offset="1"
         id="stop5391" />
    </linearGradient>
    <radialGradient
       inkscape:collect="always"
       xlink:href="#linearGradient5387-8"
       id="radialGradient5395-8"
       cx="1040.4062"
       cy="212.875"
       fx="1040.4062"
       fy="212.875"
       r="200.49997"
       gradientTransform="translate(0,-2.6543021e-5)"
       gradientUnits="userSpaceOnUse" />
    <linearGradient
       inkscape:collect="always"
       id="linearGradient5387-8">
      <stop
         style="stop-color:#000000;stop-opacity:1;"
         offset="0"
         id="stop5389-1" />
      <stop
         style="stop-color:#000000;stop-opacity:0;"
         offset="1"
         id="stop5391-2" />
    </linearGradient>
    <linearGradient
       inkscape:collect="always"
       xlink:href="#linearGradient5387"
       id="linearGradient6991"
       x1="414.84061"
       y1="198.5625"
       x2="824.97186"
       y2="198.5625"
       gradientUnits="userSpaceOnUse" />
    <linearGradient
       inkscape:collect="always"
       xlink:href="#linearGradient5387"
       id="linearGradient7011"
       x1="904.84064"
       y1="211.61859"
       x2="1297.4656"
       y2="211.61859"
       gradientUnits="userSpaceOnUse" />
    <linearGradient
       inkscape:collect="always"
       xlink:href="#linearGradient5387"
       id="linearGradient7282"
       x1="1374.3075"
       y1="197.98438"
       x2="1785.5049"
       y2="197.98438"
       gradientUnits="userSpaceOnUse" />
    <linearGradient
       inkscape:collect="always"
       xlink:href="#linearGradient5387"
       id="linearGradient7290"
       x1="1655.9305"
       y1="372.11218"
       x2="1759.5695"
       y2="372.11218"
       gradientUnits="userSpaceOnUse" />
  </defs>
  <sodipodi:namedview
     id="base"
     pagecolor="#000000"
     bordercolor="#666666"
     borderopacity="1.0"
     inkscape:pageopacity="0"
     inkscape:pageshadow="2"
     inkscape:zoom="0.61196846"
     inkscape:cx="1399.566"
     inkscape:cy="793.13787"
     inkscape:document-units="px"
     inkscape:current-layer="layer1"
     showgrid="true"
     inkscape:snap-global="false"
     inkscape:snap-bbox="true"
     inkscape:snap-page="false"
     inkscape:window-width="1920"
     inkscape:window-height="1058"
     inkscape:window-x="-8"
     inkscape:window-y="-8"
     inkscape:window-maximized="1"
     inkscape:snap-to-guides="true"
     inkscape:snap-grids="true"
     showguides="false">
    <inkscape:grid
       type="xygrid"
       id="grid2985"
       empspacing="10"
       visible="true"
       enabled="true"
       snapvisiblegridlinesonly="true" />
    <sodipodi:guide
       position="1160,440.00002"
       orientation="0,744.09448"
       id="guide6915" />
    <sodipodi:guide
       position="1900,640.00002"
       orientation="-1052.3622,0"
       id="guide6917" />
    <sodipodi:guide
       position="1880,1200"
       orientation="0,-744.09448"
       id="guide6919" />
    <sodipodi:guide
       position="280,1220"
       orientation="1052.3622,0"
       id="guide6921" />
  </sodipodi:namedview>
  <metadata
     id="metadata7">
    <rdf:RDF>
      <cc:Work
         rdf:about="">
        <dc:format>image/svg+xml</dc:format>
        <dc:type
           rdf:resource="http://purl.org/dc/dcmitype/StillImage" />
        <dc:title></dc:title>
      </cc:Work>
    </rdf:RDF>
  </metadata>
  <g
     inkscape:label="レイヤー 1"
     inkscape:groupmode="layer"
     id="layer1">
    <path
       style="opacity:0.57654718;fill:#ff0000;fill-opacity:0.15328465;stroke:#ff0000;stroke-width:2.99999976;stroke-miterlimit:4;stroke-opacity:1;stroke-dasharray:none"
       d="m -279.6,530.86218 0,44.9375 c -90.70063,18.31753 -159,98.46201 -159,194.5625 0,93.37811 64.48197,171.6769 151.34375,192.84375 L -319.6,930.86218 l 46.625,-46.625 c -49.45144,-14.25126 -85.625,-59.83668 -85.625,-113.875 0,-51.59841 32.97096,-95.48214 79,-111.75 l 0,32.25 80,-80 -0.5,-0.5 -38.46875,-38.46875 L -279.6,530.86218 z m 86.65625,46.65625 32.84375,32.84375 -46.34375,46.34375 c 49.05293,14.50286 84.84375,59.90131 84.84375,113.65625 0,51.5934 -32.97852,95.482 -79,111.75 l 0,-31.25 -80,80 80,80.00002 0,-45.93752 c 90.70063,-18.31753 159,-98.46201 159,-194.5625 0,-93.37811 -64.48197,-171.6769 -151.34375,-192.84375 z"
       id="path2993"
       inkscape:connector-curvature="0" />
    <path
       style="opacity:0.93000004000000003;fill:url(#linearGradient6991);fill-opacity:1;stroke:#ffffff;stroke-width:13.13125000000000000;stroke-miterlimit:4;stroke-opacity:1;stroke-dasharray:none;stroke-linejoin:miter;stroke-linecap:round;stroke-dashoffset:0;marker-mid:none;marker-end:none"
       d="M 616.78125 -25.625 L 606.8125 14.3125 C 503.28652 21.052503 421.40625 107.14498 421.40625 212.375 C 421.40625 322.00352 510.27773 410.875 619.90625 410.875 C 629.98805 410.875 639.88477 410.13774 649.5625 408.6875 L 591.09375 373.5625 L 616.75 330.84375 C 552.76156 329.17252 501.40625 276.76658 501.40625 212.375 C 501.40625 158.81349 536.9377 113.5469 585.71875 98.875 L 578.0625 129.625 L 675.03125 71.34375 L 674.6875 70.75 L 641.1875 15 L 616.78125 -25.625 z M 678.84375 22.75 L 713.5 80.40625 L 671.46875 105.65625 C 711.08338 124.83206 738.40625 165.41106 738.40625 212.375 C 738.40625 248.56879 722.1695 280.95162 696.59375 302.6875 L 687.8125 267.5 L 646.90625 335.59375 L 629.90625 363.875 L 629.5625 364.46875 L 726.53125 422.75 L 717.21875 385.40625 C 777.61293 351.36674 818.40625 286.64098 818.40625 212.375 C 818.40625 123.2672 759.69549 47.853065 678.84375 22.75 z "
       id="path2993-0" />
    <path
       style="fill:none;stroke:none;stroke-width:1px;stroke-linecap:butt;stroke-linejoin:miter;stroke-opacity:1"
       d="m 599.4,12.862183 -180,0 0,399.999997 400,0 0,-399.999997 z"
       id="path3905"
       inkscape:connector-curvature="0" />
    <path
       style="opacity:0.93000033999999998;fill:url(#linearGradient7011);fill-opacity:1.0;stroke:#ffffff;stroke-width:13.13125038000000100;stroke-opacity:1;marker-mid:none;marker-end:none;fill-rule:nonzero"
       d="M 968.33032,21.362181 911.40625,78.439103 1044.2291,211.61859 911.40625,344.79808 968.33032,401.875 1101.1531,268.69551 1233.9759,401.875 1290.9,344.79808 1158.0772,211.61859 1290.9,78.439103 1233.9759,21.362181 1101.1531,154.54167 968.33032,21.362181 z"
       id="path3907"
       inkscape:connector-curvature="0" />
    <path
       style="fill:none;stroke:none;stroke-width:1px;stroke-linecap:butt;stroke-linejoin:miter;stroke-opacity:1"
       d="m 1080.4,12.862183 -180,0 0,399.999997 400,0 0,-399.999997 z"
       id="path3905-7"
       inkscape:connector-curvature="0" />
    <path
       inkscape:connector-curvature="0"
       style="opacity:0.93000034;fill:#000000;fill-opacity:1;stroke:none;stroke-width:13.13125038;marker-mid:none;marker-end:none"
       d="m 39.89995,572.36218 -59.99995,60 140.00005,140 -140.00005,140 59.99995,60 140.00005,-140 140,140 60,-60 -140,-140 140,-140 -60,-60 -140,140 -140.00005,-140 z"
       id="path3907-1" />
    <path
       style="fill:none;stroke:none;stroke-width:1px;stroke-linecap:butt;stroke-linejoin:miter;stroke-opacity:1"
       d="m 1560.4,12.862183 -180,0 0,399.999997 400,0 0,-399.999997 z"
       id="path3905-7-9"
       inkscape:connector-curvature="0" />
    <path
       style="opacity:0.93000033999999998;fill:url(#linearGradient7282);fill-opacity:1.0;fill-rule:nonzero;stroke:#ffffff;stroke-width:14.01000022999999900;stroke-linecap:butt;stroke-linejoin:miter;stroke-miterlimit:4;stroke-opacity:1;stroke-dasharray:none;stroke-dashoffset:0"
       d="m 1579.9062,13.78125 c -109.6802,0 -198.5937,62.049845 -198.5937,138.59375 0,57.11872 49.5138,106.13456 120.2187,127.34375 -0.091,-1.83866 -0.1648,-3.67868 -0.1874,-5.53125 -0.01,-0.60715 -0.031,-1.20332 -0.031,-1.8125 0,-0.60841 0.02,-1.20553 0.031,-1.8125 0.3007,-25.0501 6.8139,-48.33093 17.7812,-67.875 -34.6163,-10.23177 -57.8125,-28.93248 -57.8125,-50.3125 0,-32.36112 53.0962,-58.59375 118.5937,-58.59375 64.5393,0 117.0381,25.48161 118.5626,57.1875 0,0 0.1488,1.69383 0.031,1.40625 0.25,13.32783 -10.8748,18.60702 -31.2812,18.78125 l -27.6876,-0.125 c -0.042,-1.6e-4 -0.083,0 -0.125,0 -53.9798,0 -97.8052,43.38774 -98.5624,97.1875 -0.01,0.47103 -0.031,0.93411 -0.031,1.40625 0,0.47274 0.025,0.93509 0.031,1.40625 0.6559,45.78205 33.1067,86.25374 82.6874,111.15625 -1.4568,-6.37337 -2.2187,-12.99755 -2.2187,-19.8125 0,-22.3785 8.2829,-42.84327 21.9687,-58.4375 -13.6111,-9.2898 -21.8475,-20.63346 -22.4374,-32.90625 -0.012,0.13686 -0.031,-1.40625 -0.031,-1.40625 0,-10.26973 8.4488,-18.71875 18.7187,-18.71875 0.135,0 0.6087,-0.001 1.4688,0 l 1.125,-0.0312 c 9.0671,0.15955 25.3233,-0.14415 37.2812,-0.40625 69.6807,1.08778 98.305,-42.88774 99.0626,-96.6875 0.01,-0.47103 0.031,-0.93411 0.031,-1.40625 0,-0.47274 -0.025,-0.93509 -0.031,-1.40625 C 1777.381,75.07654 1688.9112,13.7813 1579.9063,13.7813 z"
       id="path7165"
       inkscape:connector-curvature="0"
       sodipodi:nodetypes="csccsccssccccscsccscccsccccscsc" />
    <path
       sodipodi:type="arc"
       style="opacity:0.93000033999999998;fill:url(#linearGradient7290);fill-opacity:1.0;fill-rule:nonzero;stroke:#ffffff;stroke-width:12.13886091000000000;stroke-linecap:butt;stroke-linejoin:miter;stroke-miterlimit:4;stroke-opacity:1;stroke-dasharray:none;stroke-dashoffset:0"
       id="path7240"
       sodipodi:cx="1707.75"
       sodipodi:cy="372.11218"
       sodipodi:rx="45.75"
       sodipodi:ry="38.75"
       d="m 1753.5,372.11218 c 0,21.40104 -20.483,38.75 -45.75,38.75 -25.267,0 -45.75,-17.34896 -45.75,-38.75 0,-21.40103 20.483,-38.75 45.75,-38.75 25.267,0 45.75,17.34897 45.75,38.75 z"
       transform="matrix(1.0621858,0,0,1.2540646,-104.04774,-104.29054)" />
    <rect
       style="opacity:0.93000034;fill:none;stroke:#ff0000;stroke-width:1;stroke-opacity:1;display:none"
       id="rect7294"
       width="1460"
       height="519.5"
       x="379.89999"
       y="-67.137817"
       inkscape:export-xdpi="85.141609"
       inkscape:export-ydpi="85.141609" />
    <rect
       style="opacity:0.93000034;fill:#000000;fill-opacity:0.33454548;stroke:none;display:none"
       id="rect7296"
       width="500"
       height="500"
       x="371.82965"
       y="-47.637833" />
    <rect
       style="opacity:0.93000034;fill:#000000;fill-opacity:0.33454548;stroke:none;display:none"
       id="rect7296-7"
       width="500"
       height="500"
       x="851.55463"
       y="-37.833405" />
    <rect
       style="opacity:0.93000034;fill:#000000;fill-opacity:0.33454548;stroke:none;display:none"
       id="rect7296-7-5"
       width="500"
       height="500"
       x="1330.3992"
       y="-37.833405" />
  </g>
</svg>
